HIERARCHY
ROOT Model_Hips
{
	OFFSET 0.000000 96.915077 0.000000
	CHANNELS 6 Xposition Yposition Zposition Xrotation Yrotation Zrotation
	JOINT Model_Spine
	{
		OFFSET 0.000000 11.137703 -1.289900
		CHANNELS 3 Xrotation Yrotation Zrotation
		JOINT Model_Spine1
		{
			OFFSET 0.000000 12.993942 -1.504922
			CHANNELS 3 Xrotation Yrotation Zrotation
			JOINT Model_Spine2
			{
				OFFSET 0.000000 14.850220 -1.719911
				CHANNELS 3 Xrotation Yrotation Zrotation
				JOINT Model_Neck
				{
					OFFSET 0.000000 16.706543 -1.934903
					CHANNELS 3 Xrotation Yrotation Zrotation
					JOINT Model_Head
					{
						OFFSET 0.000000 10.471298 2.002100
						CHANNELS 3 Xrotation Yrotation Zrotation
						JOINT Model_HeadTop_End
						{
							OFFSET 0.000000 20.842606 3.985100
							CHANNELS 3 Xrotation Yrotation Zrotation
							End Site
							{
								OFFSET 0.000000 21.220154 0.000000
							}
						}
					}
				}
				JOINT Model_LeftShoulder
				{
					OFFSET 7.008500 14.768600 -1.919946
					CHANNELS 3 Xrotation Yrotation Zrotation
					JOINT Model_LeftArm
					{
						OFFSET 14.126271 -3.718048 0.029937
						CHANNELS 3 Xrotation Yrotation Zrotation
						JOINT Model_LeftForeArm
						{
							OFFSET 28.282801 0.000000 0.000000
							CHANNELS 3 Xrotation Yrotation Zrotation
							JOINT Model_LeftHand
							{
								OFFSET 26.204689 0.000000 0.000000
								CHANNELS 3 Xrotation Yrotation Zrotation
								End Site
								{
									OFFSET 26.204704 0.000000 0.000000
								}
							}
						}
					}
				}
				JOINT Model_RightShoulder
				{
					OFFSET -7.008500 14.768555 -1.949840
					CHANNELS 3 Xrotation Yrotation Zrotation
					JOINT Model_RightArm
					{
						OFFSET -14.126281 -3.718018 -0.029932
						CHANNELS 3 Xrotation Yrotation Zrotation
						JOINT Model_RightForeArm
						{
							OFFSET -28.283798 0.000000 -0.000001
							CHANNELS 3 Xrotation Yrotation Zrotation
							JOINT Model_RightHand
							{
								OFFSET -26.204193 0.000000 -0.000001
								CHANNELS 3 Xrotation Yrotation Zrotation
								End Site
								{
									OFFSET -26.204208 0.000000 -0.000001
								}
							}
						}
					}
				}
			}
		}
	}
	JOINT Model_LeftUpLeg
	{
		OFFSET 8.327700 -6.193199 -0.402800
		CHANNELS 3 Xrotation Yrotation Zrotation
		JOINT Model_LeftLeg
		{
			OFFSET 0.735802 -42.108742 -0.610721
			CHANNELS 3 Xrotation Yrotation Zrotation
			JOINT Model_LeftFoot
			{
				OFFSET -0.735806 -36.833748 -0.172876
				CHANNELS 3 Xrotation Yrotation Zrotation
				JOINT Model_LeftToeBase
				{
					OFFSET -0.565857 -11.977769 16.297714
					CHANNELS 3 Xrotation Yrotation Zrotation
					JOINT Model_LeftToe_End
					{
						OFFSET -0.111712 -0.312793 7.857784
						CHANNELS 3 Xrotation Yrotation Zrotation
						End Site
						{
							OFFSET -0.111712 -0.312793 7.857784
						}
					}
				}
			}
		}
	}
	JOINT Model_RightUpLeg
	{
		OFFSET -8.327700 -6.193199 -0.516500
		CHANNELS 3 Xrotation Yrotation Zrotation
		JOINT Model_RightLeg
		{
			OFFSET -0.735785 -42.108738 -0.434061
			CHANNELS 3 Xrotation Yrotation Zrotation
			JOINT Model_RightFoot
			{
				OFFSET 0.735776 -36.833748 -0.021630
				CHANNELS 3 Xrotation Yrotation Zrotation
				JOINT Model_RightToeBase
				{
					OFFSET 0.565817 -11.977745 15.903093
					CHANNELS 3 Xrotation Yrotation Zrotation
					JOINT Model_RightToe_End
					{
						OFFSET 0.111702 -0.312791 7.811342
						CHANNELS 3 Xrotation Yrotation Zrotation
						End Site
						{
							OFFSET 0.111702 -0.312791 7.811342
						}
					}
				}
			}
		}
	}
}
MOTION
Frames: 9
Frame Time: 0.016667
-0.118598 91.189507 1.840059 12.631886 -17.788820 -1.659760 15.199018 11.118827 -1.541191 0.896709 3.072508 -0.046381 0.904461 3.064690 -0.064814 -10.795878 -0.168917 -0.555585 -10.789482 -0.146413 -0.674731 0.000001 0.000000 -0.000000 7.114758 11.789733 -13.025586 25.260876 -16.089361 -48.446047 -0.000000 -55.357085 -0.000001 0.000000 -0.000000 -0.000000 2.208897 5.170461 14.451874 -2.679229 50.362782 50.272245 -0.000011 71.289840 0.000022 0.000001 0.000002 -0.000002 -59.421375 2.824027 11.827465 128.047578 -9.306502 -0.387544 -18.027591 3.185632 -14.732658 -1.785555 -0.000004 -0.000006 -0.000002 0.000001 0.000001 -0.319155 -7.286252 0.064279 28.776338 9.593284 -0.431326 -20.636074 4.058944 -0.225939 -19.553682 0.000008 0.000001 0.000000 -0.000000 0.000000 
-0.254220 92.126785 7.166986 12.972691 -16.549046 0.755852 15.172084 11.807087 -4.417081 0.603961 3.473934 -0.646122 0.587579 3.488228 -0.666719 -11.048054 -0.405591 -0.937055 -11.036915 -0.391631 -1.075901 0.000000 0.000000 0.000000 6.549375 12.159034 -10.100226 31.402413 -15.849135 -47.078564 0.000005 -59.132834 0.000012 -0.000002 -0.000000 0.000000 2.217520 4.680131 12.855458 -3.359579 52.990684 50.572172 -0.000062 77.353115 0.000079 -0.000000 -0.000000 0.000001 -62.589115 3.020045 8.669825 124.414928 -1.560747 -0.018007 -21.084522 4.314455 -18.270413 3.710613 0.000001 0.000000 -0.000004 0.000000 0.000001 4.260101 -11.034860 -3.351659 22.152484 10.062979 0.643703 -12.997320 5.749357 0.539651 -24.537794 0.009874 -0.537877 0.000000 -0.000001 0.000000 
-0.342009 92.951920 12.367604 13.730679 -15.081375 2.700973 14.890152 12.216066 -6.725350 0.180889 3.757231 -1.282041 0.142584 3.784614 -1.313574 -11.211812 -0.648040 -1.164146 -11.197591 -0.631671 -1.316425 0.000000 0.000000 -0.000000 5.913302 12.547662 -6.961535 36.151085 -15.141840 -46.169787 0.000006 -62.688904 0.000007 0.000003 -0.000000 -0.000000 2.236615 4.224766 12.508259 -2.754859 54.781799 48.767677 -0.000082 83.421219 0.000088 -0.000000 0.000001 0.000002 -65.689051 3.540678 5.516199 119.831817 5.024975 0.126554 -21.848911 3.794810 -15.310188 5.955982 -0.000003 0.000001 -0.000000 -0.000000 0.000001 11.288636 -14.252241 -5.367982 7.272286 10.940355 1.469765 -3.113000 5.826393 2.847368 -27.959842 0.069578 -0.740994 0.000000 0.000000 0.000000 
-0.403420 93.788963 17.517874 14.686937 -13.628037 4.230685 14.367510 12.566981 -8.576952 -0.245942 3.984336 -1.863740 -0.301458 4.017562 -1.909361 -11.337844 -0.867924 -1.354541 -11.320514 -0.846640 -1.518034 0.000001 -0.000001 -0.000000 5.364675 12.755856 -4.354728 39.769572 -14.035532 -45.594371 0.000004 -65.723079 0.000041 0.000002 -0.000000 -0.000001 2.278127 3.652433 12.611248 -1.533625 56.234962 45.909011 -0.000938 89.165627 0.001054 -0.000001 -0.000000 -0.000000 -68.119526 3.690741 2.849195 114.129483 7.749101 0.026818 -21.387114 2.668230 -10.262203 6.687964 -0.000000 -0.000004 0.000000 -0.000000 0.000000 10.124265 -16.089687 -8.279478 8.094543 10.230440 1.895629 5.344844 5.201128 9.061784 -34.073307 1.104879 -4.117845 -0.000000 0.000002 0.000000 
-0.423877 94.704330 22.700222 15.807969 -12.336353 5.213889 13.572672 12.978387 -9.847902 -0.597678 4.170648 -2.310316 -0.663158 4.201406 -2.371258 -11.458523 -1.036355 -1.574921 -11.436589 -1.012296 -1.749391 -0.000000 0.000000 0.000000 5.083939 12.612906 -3.036358 42.026441 -12.185857 -44.809470 -0.000030 -68.007169 -0.000018 -0.000000 -0.000000 -0.000000 2.355914 2.780312 12.791688 -0.102498 57.487633 42.522811 -0.000081 94.244678 0.000080 -0.000001 -0.000001 -0.000002 -69.882029 3.144174 1.102378 107.456040 6.927074 -0.228234 -20.312545 1.826780 -6.914159 6.351313 0.000000 0.000001 0.000001 0.000000 0.000000 10.727080 -17.144962 -9.976628 5.999397 6.447315 1.726825 15.450752 6.021958 15.948990 -34.305984 2.189365 -5.875629 0.000000 -0.000002 0.000001 
-0.402582 95.726852 27.965391 16.963810 -11.325768 5.618779 12.581717 13.487483 -10.528419 -0.797616 4.324805 -2.564546 -0.865605 4.346711 -2.638618 -11.601526 -1.134080 -1.854582 -11.573009 -1.112404 -2.040764 0.000000 0.000000 0.000000 5.150697 12.084348 -3.364304 42.797887 -9.551514 -43.515842 -0.000015 -69.353693 -0.000013 -0.000001 0.000000 -0.000000 2.457401 1.573580 12.714010 1.006018 58.658935 39.427318 0.000053 98.358952 -0.000077 -0.000002 -0.000000 -0.000001 -70.844423 2.154446 0.279015 99.849798 4.426395 -0.504663 -19.104461 1.410740 -5.821668 5.505013 0.000000 0.000001 -0.000001 0.000000 0.000000 11.552091 -17.300575 -10.353912 6.645985 3.094095 0.900151 19.401499 5.840596 17.504375 -18.111056 0.488776 -2.942042 -0.000002 -0.000001 -0.000000 
-0.341542 96.832634 33.337746 17.947405 -10.636312 5.502616 11.549144 14.011970 -10.701149 -0.801592 4.438293 -2.617129 -0.866788 4.449455 -2.698294 -11.771610 -1.159373 -2.161317 -11.735753 -1.145104 -2.358921 0.000000 0.000000 0.000000 5.473395 11.282176 -5.076985 42.062941 -6.566336 -41.775452 0.000042 -69.669821 0.000051 0.000001 0.000000 0.000000 2.539466 0.211238 12.247757 1.402902 59.755658 37.411757 -0.000122 101.332345 0.000103 0.000001 0.000001 -0.000000 -70.681079 1.118919 0.130198 91.280328 2.022819 -0.678653 -17.985930 1.201527 -5.676801 4.594190 -0.000003 -0.000001 -0.000001 -0.000000 -0.000000 14.685803 -16.991048 -9.236827 4.452809 0.647799 -0.489551 21.813348 5.239843 17.080442 -4.798423 0.000007 -0.000009 -0.000003 0.000002 -0.000001 
-0.249759 97.937141 38.806896 18.542712 -10.213472 5.009298 10.661953 14.377070 -10.525855 -0.615608 4.486606 -2.508163 -0.676005 4.490183 -2.587820 -11.946495 -1.126783 -2.418656 -11.904466 -1.122227 -2.624768 -0.000000 0.000001 -0.000000 5.870861 10.418143 -7.445092 40.030718 -3.921767 -39.985963 0.000010 -69.023324 0.000011 0.000001 -0.000000 -0.000000 2.562102 -0.976185 11.507142 1.083131 60.613612 36.883776 0.000026 103.139838 -0.000054 0.000001 0.000000 0.000000 -69.125298 0.314921 0.366835 81.773832 0.709977 -0.673489 -17.057105 1.056590 -5.467849 3.836327 -0.000002 0.000001 -0.000001 0.000001 -0.000001 17.361050 -15.991414 -7.808146 4.513705 -0.488690 -2.211157 21.676258 4.233889 15.246628 -3.367237 0.000005 0.000008 -0.000004 0.000000 -0.000002 
-0.142152 98.915779 44.343491 18.612605 -9.922284 4.299930 10.072815 14.397395 -10.160428 -0.293246 4.441684 -2.306429 -0.349613 4.443868 -2.376227 -12.088819 -1.058369 -2.553782 -12.043773 -1.062590 -2.762604 0.000000 0.000001 -0.000000 6.203980 9.699214 -9.675282 37.194540 -2.127565 -38.679221 0.000022 -67.680133 0.000028 0.000001 0.000000 0.000001 2.528945 -1.676733 10.758004 0.472587 60.968120 37.675706 0.000032 103.878619 -0.000042 0.000001 0.000000 -0.000001 -66.128744 -0.151419 0.777462 71.424374 0.809676 -0.479911 -16.261161 0.961108 -5.096409 3.255598 0.000001 -0.000001 -0.000001 -0.000000 -0.000000 20.442695 -14.738706 -6.244837 4.480111 -0.926564 -3.942753 23.080078 3.769073 12.597156 -4.524402 0.000013 -0.000006 0.000001 0.000001 -0.000002 
